<?xml version="1.0" encoding="utf-8"?>
<!-- Generator: Adobe Illustrator 25.0.0, SVG Export Plug-In . SVG Version: 6.00 Build 0)  -->
<svg version="1.1" id="Layer_1" xmlns="http://www.w3.org/2000/svg" xmlns:xlink="http://www.w3.org/1999/xlink" x="0px" y="0px"
	 viewBox="0 0 310 310" style="enable-background:new 0 0 310 310;" xml:space="preserve">
<style type="text/css">
	.st0{fill-rule:evenodd;clip-rule:evenodd;fill:#E41707;}
</style>
<path class="st0" d="M192.9,54.4c-20.7,14.5-36.7,35.2-45.4,59.3c-7.5-4.7-16.1-7.2-24.9-7.1c-25.9,0-46.8,21-46.8,46.8
	s21,46.8,46.8,46.8c8.8,0,17-2.4,24-6.6c8.4,25.3,24.8,47,46.3,62c-19.9,13.9-44.1,22.1-70.2,22.1C54.9,277.7,0,222.8,0,155
	S54.9,32.3,122.7,32.3C148.8,32.3,173,40.5,192.9,54.4z M263.2,200.2c-25.9,0-46.8-21-46.8-46.8s21-46.8,46.8-46.8
	c25.9,0,46.8,21,46.8,46.8S289,200.2,263.2,200.2z"/>
</svg>
