<svg width="24" height="24" fill="none" xmlns="http://www.w3.org/2000/svg"><path d="M23.89 12.637a2.099 2.099 0 00-2.66-1.32l-2.227.75-1.51-4.486 2.17-.73a2.1 2.1 0 10-1.34-3.98l-2.17.73-.73-2.171a2.1 2.1 0 00-3.98 1.34l.731 2.171-4.581 1.542-.722-2.145a2.099 2.099 0 10-3.98 1.339l.723 2.145-2.184.735a2.099 2.099 0 101.34 3.98l2.183-.736 1.51 4.487-2.125.715a2.1 2.1 0 001.339 3.98l2.126-.716.775 2.303a2.1 2.1 0 003.979-1.34l-.776-2.302 4.582-1.543.766 2.277a2.099 2.099 0 103.98-1.339l-.767-2.277 2.228-.75a2.099 2.099 0 001.32-2.659zM10.442 14.95l-1.51-4.487 4.582-1.542 1.51 4.487-4.582 1.542z" fill="#EC1D24"/></svg>