<svg width="30" height="24" fill="none" xmlns="http://www.w3.org/2000/svg"><path d="M29.76 2.879c-.911.358-2.28.518-3.248.432C27.066 2.92 28.474 1.773 28.8 0c-1.444.943-3.465 1.336-4.328 1.322A6.21 6.21 0 0020.64 0a6.24 6.24 0 00-6.24 6.239c0 .324.032.641.08.953-2.487-.045-8.018-1.01-12.56-6.233-2.48 4.24.564 6.878 1.92 8.043C2.6 9.68.96 8.186.96 8.186s-.08 5.033 5.097 6.056c-.877.657-2.417.598-3.177.118 1.048 4.076 5.469 4.31 5.76 4.31-2.68 1.98-5.16 2.529-8.64 2.449 3.02 2.28 6.541 2.843 9.6 2.88 2.403.028 4.609-.467 6.357-1.194 7.28-3.03 10.923-9.403 10.923-16.566 0-.197-.012-.39-.03-.582 1.347-.506 2.318-1.644 2.91-2.778z" fill="#EC1D24"/></svg>