<svg width="36" height="24" fill="none" xmlns="http://www.w3.org/2000/svg"><path d="M35.255 7.254v-.018c-.17-2.228-.495-3.287-.495-3.287l-.005.009c-.022-.082-.04-.167-.066-.247l-.004-.015h-.001A4.67 4.67 0 0030.937.55V.546C18.67-.66 5.999.508 5.999.508v.015a4.658 4.658 0 00-4.018 2.99l-.004-.002-.034.102c-.074.213-.137.431-.181.657-.436 1.73-1.314 6.4-.314 13.32l-.004-.001.262 1.648c.018.185.047.365.086.543l.014.084.004-.007c.017.072.03.145.05.216l.005.028h.002a4.66 4.66 0 004.242 3.328v.01s9.961 1.262 24.382 0l.002-.005a4.615 4.615 0 001.84-.485c.016-.008.032-.01.049-.018 1.422-.68 2.025-1.917 2.23-2.455.012-.03.024-.068.036-.102.033-.096.054-.165.054-.165h-.004c.008-.032.018-.053.027-.09l.049-.233c.037-.156.072-.311.094-.471.373-1.987.435-3.752.435-3.752h-.005c.298-3.441.174-6.334-.043-8.41zM14.91 17.242V6.932l8.99 5.155-8.99 5.155z" fill="#EC1D24"/></svg>