<svg width="231" height="72" fill="none" xmlns="http://www.w3.org/2000/svg"><mask id="a" maskUnits="userSpaceOnUse" x="0" y="0" width="231" height="72"><path d="M214.674 63.835c-9.06 8.3-30.667 6.535-30.667-9.835 0-17.247 18.77-18.574 30.549-17.532v-.063c-.436-9.025-16.02-6.802-22.24-2.01-1.947-2.694-5.245-7.496-6.598-9.667 7.16-5.323 24.643-9.203 33.598-4.305 8.955 4.897 10.707 13.464 10.709 17.823V72v-4.494h-14.936l-.415-3.671zm-58.771-.398c-15.896 12.147-32.194.615-34.229-15.011-2.533-19.463 13.482-34.92 34.099-28.184V0h15.715v67.506h-15.126l-.459-4.069zm-.13-16.398V33.524c-6.81-2.99-17.327-3.101-18.283 10.468-.979 13.904 17.054 15.315 18.283 3.047zm-60.32-22.401c4.6-5.414 11.142-6.976 19.627-4.683-1.276 6.77-2.153 11.344-2.631 13.722-12.23-2.054-16.731 1.49-16.785 11.78V67.57H79.949V19.76h15.125l.38 4.877zm-54.89-1.139c-4.288 3.043-7.565 7.356-9.249 12.37a9.96 9.96 0 00-5.778-1.83c-5.424 0-9.821 4.282-9.821 9.563 0 5.28 4.397 9.562 9.821 9.562 2.16 0 4.157-.679 5.778-1.83 1.684 5.015 4.961 9.327 9.25 12.37-4.217 2.993-9.41 4.758-15.028 4.758C11.433 68.462 0 57.332 0 43.602c0-13.73 11.433-24.86 25.536-24.86 5.618 0 10.811 1.765 15.028 4.757zm173.945 23.162c-4.691.054-15.269-1.584-15.025 5.93.244 7.516 15.025 6.208 15.025-2.488v-3.442zM55.591 53.163c-5.424 0-9.822-4.28-9.822-9.561s4.398-9.562 9.822-9.562c5.424 0 9.822 4.28 9.822 9.562 0 5.28-4.398 9.562-9.822 9.562z" fill="#fff"/></mask><g mask="url(#a)"><path fill-rule="evenodd" clip-rule="evenodd" d="M0 72.017h230.061V0H0v72.017z" fill="#EC1D24"/></g></svg>